<?xml version="1.0" encoding="UTF-8"?>
<svg id="Camada_2" data-name="Camada 2" xmlns="http://www.w3.org/2000/svg" viewBox="0 0 2117.06 579.02">
  <defs>
    <style>
      .cls-1, .cls-2 {
        fill: #fff;
      }

      .cls-2 {
        fill-rule: evenodd;
      }

      .cls-3 {
        fill: #ed6c3b;
      }
    </style>
  </defs>
  <g id="Camada_1-2" data-name="Camada 1">
    <g>
      <path class="cls-2" d="M74.69,0C26.23,62.45,0,138.72,0,217.13s26.23,154.68,74.69,217.13l106.25-103.87c-21.61-33.97-33.06-73.19-33.06-113.21s11.45-79.23,33.06-113.21L74.69,0Z"/>
      <path class="cls-1" d="M786.73,98.42l39.63,46.33h24.08c-34.42-40.25-68.79-80.46-103.11-120.63h-24.08l51.63,60.29-51.82,60.25h24.28l39.59-46.29-.19.04ZM810.78,70.42l39.63-46.25h-24.05l-27.59,32.37,12,13.88ZM351.74,144.76c3.82,0,7.61-.8,11.13-2.35,3.53-1.54,6.73-3.8,9.42-6.65,2.69-2.85,4.82-6.22,6.27-9.93,1.44-3.71,2.17-7.69,2.15-11.69v-7.34c-.05-7.81-3.03-15.28-8.29-20.8-5.26-5.52-12.39-8.64-19.83-8.7h-33.09c-12.97,0-19.66-5.49-19.66-16.66v-5.49c-.19-10.05,8.66-16.14,21.2-16.14h59.67v-14.89h-66.6c-15.39,0-29.86,12.1-29.86,27.72v10.57c-.01,3.8.7,7.57,2.09,11.07,1.39,3.51,3.44,6.69,6.02,9.36,2.58,2.67,5.64,4.78,9,6.19,3.36,1.42,6.96,2.12,10.59,2.06h28.32c18.16,0,24.89,7.02,25.08,17.67v.93c0,11.78-7.12,19.53-21.2,19.49l-90.84-.08v15.45h98.41v.2ZM396.63,144.76h15.92V24.13h-15.92v120.63ZM508.01,129.15h-24.14c-13.05,0-20.99-10.2-20.99-23.14V39.15h45.14v-15.16h-45.06V0h-15.73v24.19h-18.75v15.16h18.56v75c0,3.99.76,7.94,2.24,11.63,1.49,3.69,3.67,7.04,6.41,9.86,2.75,2.82,6.02,5.06,9.61,6.59,3.59,1.53,7.45,2.32,11.34,2.32h31.45l-.08-15.6ZM595.59,129.15h-24.06c-13.05,0-20.99-10.2-20.99-23.14V39.15h45.06v-15.16h-45.06V0h-15.92v24.19h-18.56v15.16h18.56v75c0,3.99.76,7.94,2.24,11.63,1.49,3.69,3.67,7.04,6.42,9.86s6.02,5.06,9.61,6.59c3.59,1.53,7.45,2.32,11.34,2.32h31.45l-.08-15.6ZM668.37,78.96c2.27-.01,4.52.46,6.62,1.37,2.1.92,4.01,2.26,5.62,3.97,1.61,1.7,2.88,3.73,3.75,5.95.87,2.23,1.31,4.62,1.31,7.03v13.37c0,2.41-.44,4.8-1.31,7.03-.87,2.23-2.14,4.25-3.75,5.95-1.61,1.7-3.52,3.05-5.62,3.97-2.1.92-4.35,1.38-6.62,1.37h-24.16c-2.27.01-4.52-.46-6.62-1.37-2.1-.92-4-2.27-5.61-3.97-1.6-1.7-2.88-3.73-3.74-5.95-.86-2.23-1.3-4.61-1.29-7.02v-13.45c-.01-2.41.43-4.8,1.29-7.02.86-2.23,2.13-4.25,3.74-5.95,1.6-1.7,3.51-3.05,5.61-3.97,2.1-.92,4.35-1.38,6.62-1.37l24.16.08ZM707.09,54.81c.04-8.09-2.94-15.86-8.3-21.61-5.35-5.75-12.64-9.01-20.26-9.07h-66.94v15.26h59.28c14.26,0,21.09,7.57,21.09,22.87v9.54c-5.31-5.22-12.3-8.1-19.53-8.05h-32.28c-7.57,0-14.84,3.19-20.19,8.88-5.36,5.69-8.36,13.4-8.36,21.44v20.37c0,8.04,3.01,15.75,8.36,21.44,5.36,5.69,12.62,8.88,20.19,8.88h32.28c7.24.04,14.22-2.83,19.53-8.05v8.05h15.17V54.81h-.04Z"/>
      <path class="cls-3" d="M2003.32,217.13c21.85,0,40.06,2.5,54.63,7.49,14.57,4.99,26.16,12.15,34.77,21.46,8.94,9.32,15.23,20.63,18.87,33.94,3.64,13.31,5.46,28.12,5.46,44.43v154.74c-10.6,2.33-25.33,4.99-44.2,7.99-18.87,3.33-41.72,4.99-68.54,4.99-16.89,0-32.28-1.5-46.19-4.49-13.58-2.99-25.33-7.82-35.26-14.48-9.93-6.99-17.55-15.97-22.85-26.95-5.3-10.98-7.95-24.46-7.95-40.43s2.98-28.29,8.94-38.93c6.29-10.65,14.57-19.13,24.83-25.46,10.26-6.32,22.02-10.82,35.26-13.48,13.24-2.99,26.98-4.49,41.22-4.49,9.6,0,18.04.5,25.33,1.5,7.62.67,13.74,1.66,18.38,2.99v-6.99c0-12.65-3.81-22.79-11.42-30.45-7.62-7.65-20.86-11.48-39.73-11.48-12.58,0-25,1-37.25,2.99-12.25,1.66-22.85,4.16-31.79,7.49l-9.44-59.9c4.3-1.33,9.6-2.66,15.89-3.99,6.62-1.66,13.74-2.99,21.36-3.99,7.62-1.33,15.56-2.33,23.84-2.99,8.61-1,17.22-1.5,25.83-1.5ZM2009.28,434.77c7.28,0,14.24-.17,20.86-.5,6.62-.33,11.92-.83,15.89-1.5v-56.4c-2.98-.67-7.45-1.33-13.41-2-5.96-.67-11.42-1-16.39-1-6.95,0-13.58.5-19.87,1.5-5.96.67-11.26,2.16-15.89,4.49-4.64,2.33-8.28,5.49-10.93,9.48-2.65,3.99-3.97,8.98-3.97,14.97,0,11.65,3.81,19.8,11.42,24.46,7.95,4.33,18.71,6.49,32.28,6.49ZM1887.05,290.01c-6.62-1.66-14.4-3.33-23.34-4.99-8.94-2-18.54-2.99-28.81-2.99-4.64,0-10.26.5-16.89,1.5-6.29.67-11.09,1.5-14.4,2.5v200.66h-74v-248.58c13.24-4.66,28.81-8.98,46.69-12.98,18.21-4.33,38.41-6.49,60.59-6.49,3.97,0,8.77.33,14.4,1,5.63.33,11.26,1,16.89,2,5.63.67,11.26,1.66,16.89,2.99,5.63,1,10.43,2.33,14.4,3.99l-12.42,61.4ZM1625.82,328.95c-.33-6.32-1.49-12.48-3.48-18.47-1.66-5.99-4.47-11.31-8.44-15.97-3.64-4.66-8.44-8.49-14.4-11.48-5.63-2.99-12.75-4.49-21.36-4.49s-15.4,1.5-21.36,4.49c-5.96,2.66-10.93,6.32-14.9,10.98-3.97,4.66-7.12,10.15-9.44,16.47-1.99,5.99-3.48,12.15-4.47,18.47h97.84ZM1451.99,357.4c0-23.29,3.48-43.59,10.43-60.9,7.28-17.64,16.72-32.28,28.31-43.93,11.59-11.65,24.83-20.47,39.73-26.46,15.23-5.99,30.79-8.98,46.69-8.98,37.08,0,66.39,11.48,87.91,34.44,21.52,22.63,32.28,56.07,32.28,100.33,0,4.33-.17,9.15-.5,14.48-.33,4.99-.66,9.48-.99,13.48h-167.87c1.66,15.31,8.77,27.45,21.36,36.44,12.58,8.98,29.47,13.48,50.66,13.48,13.58,0,26.82-1.16,39.73-3.49,13.24-2.66,24.01-5.82,32.28-9.48l9.93,60.4c-3.97,2-9.27,3.99-15.89,5.99-6.62,2-14.07,3.66-22.35,4.99-7.95,1.66-16.56,3-25.83,3.99-9.27,1-18.54,1.5-27.81,1.5-23.51,0-44.04-3.49-61.59-10.48-17.22-6.99-31.62-16.47-43.21-28.45-11.26-12.31-19.7-26.79-25.33-43.43-5.3-16.64-7.95-34.61-7.95-53.91ZM1432.36,355.4c0,20.3-2.48,38.77-7.45,55.41-4.97,16.64-12.25,30.95-21.85,42.93-9.6,11.98-21.52,21.3-35.76,27.95-14.24,6.66-30.63,9.98-49.17,9.98-10.26,0-19.87-1-28.81-2.99-8.94-2-17.55-4.83-25.83-8.49v98.83h-74V233.11c6.62-2,14.24-3.83,22.85-5.49,8.61-2,17.55-3.66,26.82-4.99,9.6-1.33,19.2-2.33,28.81-2.99,9.93-1,19.37-1.5,28.31-1.5,21.52,0,40.73,3.33,57.61,9.98,16.89,6.32,31.12,15.47,42.71,27.45,11.59,11.65,20.36,25.96,26.32,42.93,6.29,16.97,9.44,35.94,9.44,56.9ZM1356.87,357.4c0-22.96-5.13-41.26-15.4-54.91-10.26-13.98-25.49-20.96-45.69-20.96-6.62,0-12.75.33-18.38,1-5.63.33-10.26.83-13.91,1.5v134.27c4.64,2.99,10.6,5.49,17.88,7.49,7.62,2,15.23,2.99,22.85,2.99,35.1,0,52.65-23.79,52.65-71.38ZM1144.87,477.69c-12.58,3.66-28.81,6.99-48.67,9.98-19.87,3.33-40.73,4.99-62.58,4.99s-40.73-2.99-55.63-8.98c-14.57-5.99-26.16-14.31-34.77-24.96-8.61-10.98-14.73-23.96-18.38-38.93-3.64-14.97-5.46-31.45-5.46-49.42v-146.25h74v137.27c0,23.96,3.15,41.26,9.44,51.91,6.29,10.65,18.05,15.97,35.26,15.97,5.3,0,10.93-.17,16.89-.5,5.96-.67,11.26-1.33,15.89-2v-202.66h74v253.57ZM685.96,355.4c0-18.97,2.98-36.77,8.94-53.41,6.29-16.97,15.23-31.61,26.82-43.93,11.59-12.65,25.66-22.63,42.22-29.95,16.56-7.32,35.43-10.98,56.62-10.98,13.91,0,26.65,1.33,38.24,3.99,11.59,2.33,22.85,5.82,33.77,10.48l-15.4,59.4c-6.95-2.66-14.57-4.99-22.85-6.99-8.28-2-17.55-2.99-27.81-2.99-21.85,0-38.24,6.82-49.17,20.47-10.6,13.64-15.89,31.61-15.89,53.91,0,23.63,4.97,41.93,14.9,54.91,10.26,12.98,27.98,19.47,53.14,19.47,8.94,0,18.54-.83,28.81-2.5,10.26-1.66,19.7-4.33,28.31-7.99l10.43,60.9c-8.61,3.66-19.37,6.82-32.28,9.48-12.91,2.66-27.15,3.99-42.71,3.99-23.84,0-44.37-3.49-61.59-10.48-17.22-7.32-31.45-17.14-42.71-29.45-10.93-12.31-19.04-26.79-24.34-43.43-4.97-16.97-7.45-35.27-7.45-54.91ZM594.58,328.95c-.33-6.32-1.49-12.48-3.48-18.47-1.66-5.99-4.47-11.31-8.44-15.97-3.64-4.66-8.44-8.49-14.4-11.48-5.63-2.99-12.75-4.49-21.36-4.49s-15.4,1.5-21.36,4.49c-5.96,2.66-10.93,6.32-14.9,10.98s-7.12,10.15-9.44,16.47c-1.99,5.99-3.48,12.15-4.47,18.47h97.84ZM420.75,357.4c0-23.29,3.48-43.59,10.43-60.9,7.28-17.64,16.72-32.28,28.31-43.93,11.59-11.65,24.83-20.47,39.73-26.46,15.23-5.99,30.79-8.98,46.69-8.98,37.08,0,66.39,11.48,87.91,34.44,21.52,22.63,32.28,56.07,32.28,100.33,0,4.33-.17,9.15-.5,14.48-.33,4.99-.66,9.48-.99,13.48h-167.87c1.66,15.31,8.77,27.45,21.36,36.44,12.58,8.98,29.47,13.48,50.66,13.48,13.58,0,26.82-1.16,39.73-3.49,13.24-2.66,24.01-5.82,32.28-9.48l9.93,60.4c-3.97,2-9.27,3.99-15.89,5.99-6.62,2-14.07,3.66-22.35,4.99-7.95,1.66-16.56,3-25.83,3.99-9.27,1-18.54,1.5-27.81,1.5-23.51,0-44.04-3.49-61.59-10.48-17.22-6.99-31.62-16.47-43.21-28.45-11.26-12.31-19.7-26.79-25.33-43.43-5.3-16.64-7.95-34.61-7.95-53.91ZM410.76,290.01c-6.62-1.66-14.4-3.33-23.34-4.99-8.94-2-18.54-2.99-28.81-2.99-4.64,0-10.26.5-16.89,1.5-6.29.67-11.09,1.5-14.4,2.5v200.66h-74v-248.58c13.24-4.66,28.81-8.98,46.69-12.98,18.21-4.33,38.41-6.49,60.59-6.49,3.97,0,8.77.33,14.4,1,5.63.33,11.26,1,16.89,2,5.63.67,11.26,1.66,16.89,2.99,5.63,1,10.43,2.33,14.4,3.99l-12.42,61.4Z"/>
    </g>
  </g>
</svg>