<?xml version="1.0" encoding="UTF-8"?>
<svg id="Camada_2" data-name="Camada 2" xmlns="http://www.w3.org/2000/svg" viewBox="0 0 3987.97 1546.05">
  <defs>
    <style>
      .cls-1, .cls-2 {
        fill: #fff;
      }

      .cls-2 {
        fill-rule: evenodd;
      }

      .cls-3 {
        fill: #f26b37;
      }
    </style>
  </defs>
  <g id="Camada_1-2" data-name="Camada 1">
    <g>
      <path class="cls-1" d="M2.77,740.89c-3.65-44.23-3.72-122.14,0-166.32,9.62-114.26,60.21-261.9,116.44-361.64,7.26-12.87,64.49-106.35,70.84-107.36s35.72,25.65,43.18,32.35c79.82,71.73,154.51,157.81,233.75,231.18-108.01,169.63-113.05,397.22-5,568.23l1.05,12.52-263.86,261.86-5.24,1.53c-73.7-92.44-128.82-201.78-159.86-316.54-12.13-44.85-27.54-110.35-31.29-155.8Z"/>
      <path class="cls-3" d="M3987.59,1220.96c-2.76,26.96-18.06,66.08-35.84,86.98-75.36,88.55-277.85,71.82-376.14,31.74l22.96-122.52c44.84,16.68,189.14,50.5,224.82,19.02,32.4-28.59-8.32-57.68-32.25-69.99-92.54-47.62-204.32-54.66-204.27-192.82.05-157.33,176.66-175.64,295.66-155.68,26.53,4.45,52.07,13.24,78.51,17.84l-26.38,120.85c-42.35-15.96-151.98-40.66-186.99-7.65-30.59,28.84,8.34,56.79,33.36,68.81,94.95,45.63,196.48,53.48,206.55,184.52.44,5.69.57,13.31,0,18.9Z"/>
      <path class="cls-1" d="M1256.76,0c16.14,11.38,3.84,42.86,7.55,60.48h113.31v41.58h-113.31v187.11c0,11.24,27.96,35.91,39.66,35.91h73.65v41.58h-100.09c-20.98,0-55.9-41.18-57.65-63.27l-.88-201.35c-13.86-2.67-45.86,7.79-49.11-9.41-8.2-43.4,17.71-30.96,49.11-32.13l-.02-60.5h37.77Z"/>
      <rect class="cls-3" x="2238.8" y="1542.27" width="151.08" height="3.78"/>
      <path class="cls-3" d="M2155.7,1357.04h-154.86v-338.32c0-7.48-10.88-37.18-15.72-44.75-30.04-47.03-88.64-33.37-131.14-13.35,19.51,130.83,7.65,264.38,10.88,396.42h-154.86v-330.76c0-1.95-5.15-23.64-6.34-27.68-11.51-38.96-37.59-58.03-78.63-57.7-8.19.07-54.78,5.14-54.78,9.77v406.36h-151.08v-514.09c92.78-19.24,214.84-49.47,306.99-18.06,14.22,4.85,58.94,32.93,65.03,32.93,7.56,0,39.27-19.52,51.17-24.16,145.44-56.68,286.68-10.17,309.09,155.29,15.84,116.94-3.04,249.33,4.24,368.09Z"/>
      <path class="cls-3" d="M2238.8,1542.27l-.17-696.83c86.09-25.73,198.29-44.09,287.42-27.25,182.78,34.53,241.17,218.95,193.44,382.98-44.86,154.16-186.25,198.73-329.58,144.55l-.02,196.55h-151.08ZM2389.88,950.69v264.6c84.79,51.27,178.57,22.92,188.82-83.19,12.51-129.49-40.63-212.22-179.34-187.04-3.5.63-8.43,2.21-9.48,5.63Z"/>
      <path class="cls-3" d="M3538.12,1141.58h-339.94c23.42,134.8,199.18,101.96,294.6,75.58-4.47,27.34,21.74,96.75,14.53,118.48-2.95,8.9-35.42,16.27-45.39,18.85-166.33,43.1-370.07,15.44-412.33-179.49-45.16-208.34,89.66-407.51,315.56-357.39,150.51,33.39,192.24,187.71,172.98,323.96ZM3394.59,1035.74c-4.88-135.34-186.35-131.93-196.41,0h196.41Z"/>
      <path class="cls-3" d="M1094.36,835.41l-26.5,120.97c-46.96-15.82-99.2-28.09-149.17-22.73-40.66,4.36-68.3,38.69-31.15,69.02,65.31,53.31,196.19,44.03,224.58,157.03,59.34,236.24-257.52,238.62-402.75,181.95l22.4-124.48c51.54,16.34,172.5,49.24,220.52,22.27,21.48-12.06,17-43.75-1.69-57.95-85.69-65.13-235.65-49.28-230.37-212,5.98-184.46,247.88-175.82,374.14-134.08Z"/>
      <path class="cls-3" d="M2948.89,574.57v599.14c0,3.61,8.16,30.04,10.57,34.78,13.79,27.12,46.36,29.01,72.46,35.3l-22.4,123.03c-77.87-.76-178.08-16.46-202.34-104.2-5.62-20.32-5.43-41.69-9.53-62.28l.68-602.54,150.56-23.22Z"/>
      <rect class="cls-3" x="1177.44" y="824.05" width="151.08" height="532.99"/>
      <path class="cls-3" d="M1186.34,735.76c-15.76-15.87-25.03-46.27-24.25-68.61,4.11-117.96,195.67-113.56,181.54,18.95-7.91,74.2-108.47,98.8-157.29,49.66Z"/>
      <g>
        <path class="cls-2" d="M1932.15,139.62c0-42.66-34.31-77.58-76.56-77.51l-179.4.3v38.3l158.83-.3c38.28-.07,56.56,19.08,56.56,57.71v24.12c-13.69-12.84-32.11-20.71-52.35-20.71h-86.48c-42.28,0-76.56,34.28-76.56,76.56v51.42c0,42.28,34.28,76.56,76.56,76.56h86.48c20.25,0,38.66-7.87,52.35-20.71v20.71h40.57v-226.44h0ZM1828.38,200.37c25.71,0,46.28,20.57,46.28,46.28v34.28c0,25.71-20.57,46.28-46.28,46.28h-64.78c-25.71,0-46.28-20.57-46.28-46.28v-34.28c0-25.71,20.57-46.28,46.28-46.28h64.78Z"/>
        <path class="cls-2" d="M1631.75,327.22h-62.28c-33.71,0-54.28-25.71-54.28-58.37V100.39h116.56v-38.28h-116.56V1.67h-41.14v60.45h-47.99v38.28h47.99v189.02c0,42.37,34.28,76.66,76.56,76.66h81.13v-38.85Z"/>
        <path class="cls-2" d="M1381.62,327.22h-62.28c-33.71,0-54.28-25.71-54.28-58.37V100.39h116.56v-38.28h-116.56V1.67h-41.14v60.45h-47.99v38.28h47.99v189.02c0,42.37,34.28,76.66,76.56,76.66h81.13v-38.85Z"/>
        <rect class="cls-1" x="1090.35" y="62.11" width="41.14" height="303.96"/>
        <path class="cls-2" d="M969.35,366.07c42.28.09,76.56-34.28,76.56-77.13v-18.28c-.57-41.13-33.71-74.28-74.28-74.28h-87.41c-34.28,0-51.99-13.8-51.99-41.99,0-4,.08-9.72,0-13.81-.49-25.23,22.85-40.18,56-40.18h157.69v-38.28h-175.97c-40.56,0-78.85,30.28-78.85,69.89v27.04c0,40.76,32.56,72.18,73.13,72.18h74.85c47.99,0,65.71,17.71,66.28,44.56v2.29c0,29.71-18.86,49.23-55.99,49.14l-239.99-.59v38.85l259.98.59Z"/>
        <path class="cls-2" d="M2208.38,178.87l104.69-116.22h-63.58l-72.8,80.88,31.69,35.34h0ZM2144.87,249.17l-104.62,116.31h-63.65l136.45-151.42-136.45-151.41h63.65c90.89,101.02,181.93,201.88,272.89,302.83h-63.65l-104.63-116.31Z"/>
      </g>
    </g>
  </g>
</svg>