<?xml version="1.0" encoding="UTF-8"?>
<svg version="1.1" xmlns="http://www.w3.org/2000/svg" width="1761" height="442">
<path d="M0 0 C18.82879026 -0.06784711 37.65748079 -0.12305735 56.48636246 -0.15543652 C65.22988527 -0.17087356 73.97332647 -0.19190224 82.71679688 -0.22631836 C90.34190737 -0.25631795 97.96695873 -0.27559797 105.59212661 -0.28226548 C109.6257038 -0.28615994 113.65911186 -0.29524567 117.69263458 -0.31719017 C121.49785103 -0.33772264 125.30283049 -0.34380039 129.10809708 -0.33932304 C130.49631925 -0.34014082 131.88455029 -0.34600596 133.27272415 -0.35761642 C151.92489108 -0.50582015 167.48893615 4.80072993 181 18 C193.78822357 32.7304623 196.31145464 47.653571 196.22705078 66.45336914 C196.22648598 68.21822096 196.22680457 69.98307325 196.22793579 71.7479248 C196.22850761 76.51794249 196.21678096 81.28785878 196.20278788 86.05785298 C196.19025204 91.05064325 196.18910777 96.04343605 196.18673706 101.03623962 C196.18053067 110.4814007 196.16413124 119.92651525 196.14403808 129.37165588 C196.1216529 140.12860624 196.11067907 150.88555887 196.10064721 161.64252675 C196.07976426 183.76171112 196.04419991 205.88085099 196 228 C185.44 228 174.88 228 164 228 C163.67 223.71 163.34 219.42 163 215 C161.7625 215.886875 160.525 216.77375 159.25 217.6875 C145.12727451 227.08044478 131.06570889 228.31567339 114.640625 228.30078125 C112.84617007 228.30467581 111.05171604 228.30901203 109.25726318 228.31376648 C105.50513719 228.32120287 101.75310533 228.32095684 98.00097656 228.31567383 C93.22577165 228.30989197 88.45095622 228.32679175 83.67581558 228.3500185 C79.97114868 228.36485371 76.26657337 228.36561417 72.56188202 228.36250877 C70.80306987 228.36301739 69.04425197 228.36816732 67.28546906 228.37832069 C47.58365906 228.47808991 30.81021772 224.98464816 16 211 C3.9691186 198.47499311 -0.31396862 184.08030488 -0.30078125 167.13671875 C-0.30506638 165.90895218 -0.3093515 164.68118561 -0.31376648 163.41621399 C-0.31949198 160.82671727 -0.32002322 158.23720447 -0.31567383 155.64770508 C-0.31251869 151.71081741 -0.33598026 147.77468531 -0.36132812 143.83789062 C-0.36360194 141.31250094 -0.36430423 138.78710925 -0.36328125 136.26171875 C-0.372491 135.09678391 -0.38170074 133.93184906 -0.39118958 132.73161316 C-0.30352165 117.04500716 4.85690795 103.54767546 15.7890625 92.1796875 C16.88347656 91.10074219 16.88347656 91.10074219 18 90 C18.56460938 89.42507812 19.12921875 88.85015625 19.7109375 88.2578125 C34.30598037 74.51711361 53.74223435 73.84165174 72.54296875 73.83203125 C74.03973928 73.82880806 75.53650951 73.82544324 77.03327942 73.82194519 C80.15899382 73.81598953 83.28468072 73.81410154 86.41040039 73.81469727 C90.37257544 73.81479855 94.33456994 73.80116525 98.29670238 73.78392506 C101.3863655 73.77268468 104.47598666 73.77078172 107.56566811 73.77130699 C109.02417941 73.77014418 110.48269243 73.76582078 111.94118309 73.75797462 C131.51927043 73.66252217 146.15623269 76.69635656 163 87 C164.48953359 62.94583769 164.48953359 62.94583769 154.75390625 41.7109375 C142.49041101 29.74788424 126.59100258 29.87827291 110.46020508 29.79467773 C109.25890961 29.78477814 108.05761414 29.77487854 106.81991577 29.76467896 C103.56241874 29.73871663 100.30492588 29.71676362 97.04738832 29.69667697 C93.629442 29.67462525 90.21153739 29.64733155 86.79362488 29.62062073 C80.33768333 29.57095062 73.88171831 29.52591789 67.42573136 29.48259836 C60.06887768 29.43300471 52.71206589 29.37816954 45.35525286 29.32291877 C30.23687308 29.20949363 15.11845326 29.10326223 0 29 C0 19.43 0 9.86 0 0 Z M39.1875 116.9375 C33.16145308 124.13032138 31.85214612 131.57991415 31.796875 140.79296875 C31.79117493 141.53903885 31.78547485 142.28510895 31.77960205 143.05378723 C31.77018425 144.62967526 31.76363092 146.20558271 31.75976562 147.78149414 C31.75010093 150.16263311 31.71906496 152.54289282 31.6875 154.92382812 C31.59595127 167.82915318 33.07314535 178.00261346 42 188 C51.72925401 196.29694013 61.25631821 197.46865095 73.6484375 197.43359375 C75.07036587 197.43816437 76.49229205 197.44347254 77.91421509 197.44947815 C80.88463349 197.45837622 83.85478258 197.45602491 86.82519531 197.44604492 C90.60659669 197.43456982 94.38706213 197.45476003 98.16834068 197.48396206 C101.10258764 197.50242944 104.03661474 197.50201068 106.9709053 197.49632454 C108.36377905 197.49617255 109.75666889 197.50211419 111.14948654 197.51461601 C123.30283438 197.60834218 132.94166347 195.45444742 142 187 C148.893873 179.46520003 151.4628389 171.73294232 151.50390625 161.671875 C151.51389145 160.80161682 151.52387665 159.93135864 151.53416443 159.034729 C151.54926877 157.20272534 151.55639262 155.37064009 151.5559082 153.53857422 C151.5624518 150.77038893 151.61696067 148.00583084 151.67382812 145.23828125 C151.79904448 132.16928369 149.65931874 123.21762869 141 113 C138.50511498 111.00457492 138.50511498 111.00457492 135.75 109.3125 C134.85796875 108.73113281 133.9659375 108.14976562 133.046875 107.55078125 C125.04513582 103.47810118 117.02254366 103.69286454 108.2265625 103.69921875 C106.90764008 103.69493362 105.58871765 103.6906485 104.22982788 103.68623352 C101.44777385 103.67880708 98.66584679 103.67903622 95.88378906 103.68432617 C92.34467351 103.69011352 88.80608256 103.67319068 85.2670536 103.6499815 C82.51812782 103.63514299 79.76932542 103.63438612 77.02036667 103.63749123 C75.08961423 103.63673846 73.15888074 103.62294957 71.22817993 103.60881042 C57.54458446 103.68015305 48.52311476 106.8597234 39.1875 116.9375 Z " fill="#FFFFFF" transform="translate(732,107)"/>
<path d="M0 0 C4.00891885 1.63791337 6.87072297 4.43588984 9.97119141 7.36547852 C10.54172052 7.89876298 11.11224964 8.43204744 11.70006752 8.98149204 C21.25168497 17.94536832 30.53184327 27.19041925 39.82519531 36.42016602 C42.20885296 38.78579621 44.60082332 41.14254372 47 43.49243164 C49.92652192 46.35897718 52.83824439 49.23978199 55.73979568 52.1315937 C56.84074631 53.22398721 57.94682315 54.31123976 59.0580864 55.39314079 C60.59910971 56.89548481 62.12036199 58.41543142 63.63818359 59.94116211 C64.50720306 60.79987411 65.37622253 61.65858612 66.27157593 62.5433197 C68 65 68 65 67.87271118 67.61305237 C66.66906941 70.90512647 65.03625396 73.92410564 63.375 77 C47.50885329 107.67838706 43.70754531 144.30030318 53.74755859 177.46972656 C56.82337505 187.04270963 60.73752598 196.12407761 65.59863281 204.92700195 C68.03842244 209.46359802 68.03842244 209.46359802 67.86352539 211.90527344 C66.65767828 214.83039875 64.83662146 216.51699764 62.58984375 218.73828125 C61.68169922 219.64126953 60.77355469 220.54425781 59.83789062 221.47460938 C59.3606958 221.9414917 58.88350098 222.40837402 58.3918457 222.8894043 C56.960103 224.29038268 55.53951651 225.70273306 54.11914062 227.11523438 C50.23623387 230.9544823 46.34131549 234.72309228 42.20288086 238.28613281 C37.72935108 242.17538011 33.57168497 246.33671315 29.4140625 250.55859375 C27.80872239 252.17655994 26.20324992 253.7943948 24.59765625 255.41210938 C22.09397168 257.94076651 19.59192772 260.47100903 17.09228516 263.00366211 C14.66218215 265.46378098 12.22605003 267.91779733 9.7890625 270.37109375 C8.66100693 271.51933876 8.66100693 271.51933876 7.51016235 272.69078064 C6.81538788 273.38893387 6.1206134 274.0870871 5.40478516 274.80639648 C4.79381989 275.42481918 4.18285461 276.04324188 3.55337524 276.68040466 C2 278 2 278 0 278 C-31.69721761 241.16188241 -46.20812551 187.58490685 -46.25 139.8125 C-46.25067474 139.11368713 -46.25134949 138.41487427 -46.25204468 137.69488525 C-46.17551701 87.36542475 -29.06322494 40.74348082 0 0 Z " fill="#F16B37" transform="translate(1693,82)"/>
<path d="M0 0 C3.33677088 1.11225696 3.69884372 1.60437614 5.56640625 4.40234375 C6.04682373 5.11817627 6.52724121 5.83400879 7.0222168 6.5715332 C7.53051025 7.35230225 8.03880371 8.13307129 8.5625 8.9375 C9.35877808 10.15215942 9.35877808 10.15215942 10.17114258 11.39135742 C27.45835166 38.08822358 38.91581249 66.808842 45 98 C45.16661133 98.83354004 45.33322266 99.66708008 45.50488281 100.52587891 C56.36054769 157.19784369 41.88882562 219.09187495 9.921875 266.61328125 C7.31878373 270.43577176 4.67212302 274.22549923 2 278 C-2.29505763 276.34395113 -5.16153042 273.10451694 -8.32910156 269.89794922 C-8.95391418 269.27342865 -9.57872681 268.64890808 -10.22247314 268.00546265 C-12.28330069 265.9432435 -14.33695653 263.8740341 -16.390625 261.8046875 C-17.81936725 260.37221453 -19.24855215 258.94018293 -20.67816162 257.50857544 C-24.43742017 253.74168516 -28.19063357 249.96882707 -31.94262695 246.19470215 C-35.77322817 242.34363269 -39.60950595 238.49822729 -43.4453125 234.65234375 C-50.96911378 227.10710066 -58.48654202 219.55554189 -66 212 C-64.72296609 208.01224133 -63.25147573 204.40211809 -61.28393555 200.69946289 C-45.64367388 171.21009113 -41.81615974 135.19249183 -51 103 C-51.18191895 102.33838867 -51.36383789 101.67677734 -51.55126953 100.99511719 C-54.72977477 89.70702083 -59.47614238 77.78578643 -66 68 C-65.78903086 63.98432937 -63.33979321 61.98046463 -60.58984375 59.26171875 C-59.68169922 58.35873047 -58.77355469 57.45574219 -57.83789062 56.52539062 C-57.3606958 56.0585083 -56.88350098 55.59162598 -56.3918457 55.1105957 C-54.960103 53.70961732 -53.53951651 52.29726694 -52.11914062 50.88476562 C-48.23721357 47.04648638 -44.34296796 43.27799904 -40.20727539 39.71386719 C-35.72193621 35.81423832 -31.53047453 31.65709067 -27.34375 27.44140625 C-26.55601196 26.65225327 -25.76827393 25.86310028 -24.95666504 25.05003357 C-22.46872898 22.55654988 -19.98431376 20.05959216 -17.5 17.5625 C-15.8023159 15.85979413 -14.10440142 14.15731793 -12.40625 12.45507812 C-8.2681672 8.30603588 -4.13296065 4.15414424 0 0 Z " fill="#F16B37" transform="translate(1385,82)"/>
<path d="M0 0 C1.40120918 0.00113233 2.80242072 0.00048712 4.20362854 -0.00177002 C7.95490262 -0.00290309 11.7056499 0.02037356 15.45680308 0.04852581 C19.39651257 0.07377834 23.33623829 0.07590003 27.27601624 0.08062744 C34.71298448 0.09298796 42.14971343 0.1257142 49.586577 0.1660254 C58.06315041 0.21096066 66.53973612 0.23278446 75.01639926 0.25280714 C92.43174977 0.29445434 109.84677287 0.36771834 127.26196289 0.45410156 C127.26196289 10.02410156 127.26196289 19.59410156 127.26196289 29.45410156 C123.41701172 29.46868408 119.57206055 29.4832666 115.6105957 29.49829102 C102.88203989 29.54871278 90.15360972 29.6151731 77.42517471 29.68981647 C69.71079124 29.73466702 61.99645282 29.77410604 54.28198242 29.80053711 C47.55332756 29.82360463 40.82481658 29.85709924 34.09627604 29.90280312 C30.53782865 29.92661816 26.97952272 29.94542325 23.42099762 29.95171547 C19.43581586 29.95895839 15.45112255 29.98949398 11.46606445 30.02172852 C10.30296249 30.02029343 9.13986053 30.01885834 7.94151306 30.01737976 C-4.45942306 30.15848302 -16.31426767 32.47699045 -25.62084961 41.22363281 C-32.00591796 48.30273033 -32.10271644 54.9097624 -32.11303711 64.14160156 C-32.14977539 65.84219727 -32.14977539 65.84219727 -32.18725586 67.57714844 C-32.21722172 76.24227776 -30.95408222 83.45577521 -25.42553711 90.32910156 C-14.11004479 99.27623502 -1.63040115 99.8873163 12.25831032 99.83422661 C14.90582071 99.82497936 17.55264311 99.83549351 20.20011902 99.85084534 C27.71852772 99.89056722 35.23687471 99.89215792 42.75537109 99.88989258 C47.37945354 99.88984101 52.00316238 99.90923515 56.62714195 99.93922615 C59.20773072 99.94989048 61.78755588 99.93801948 64.36811829 99.92539978 C82.38403139 99.96391052 97.59403391 103.91314209 111.07446289 116.64160156 C124.10731425 130.44440523 127.57455369 145.11679463 127.69946289 163.57910156 C127.70969482 164.74634766 127.71992676 165.91359375 127.73046875 167.11621094 C127.55069859 184.98762767 122.06990525 200.68439187 109.26196289 213.45410156 C97.46733055 223.47687746 83.95795954 228.81274166 68.4730072 228.6946106 C67.21803077 228.69717387 67.21803077 228.69717387 65.93770128 228.69978893 C63.1602007 228.70305884 60.38294673 228.69212169 57.60546875 228.68115234 C55.60416672 228.68058769 53.60286429 228.68090585 51.6015625 228.68203735 C46.1869423 228.68260975 40.77241123 228.67087377 35.35781169 228.65688944 C29.69236757 228.64436319 24.02692128 228.64321008 18.36146545 228.64083862 C7.64133224 228.63462943 -3.07876005 228.61822617 -13.79887527 228.59813964 C-26.00682664 228.57576322 -38.21478 228.56478282 -50.42274678 228.55474877 C-75.52786699 228.53385947 -100.63294803 228.49829017 -125.73803711 228.45410156 C-125.73803711 218.55410156 -125.73803711 208.65410156 -125.73803711 198.45410156 C-123.4389035 198.44823532 -121.1397699 198.44236908 -118.77096558 198.43632507 C-97.08365659 198.37958064 -75.39644657 198.30646135 -53.70924187 198.21838665 C-42.56015852 198.17349973 -31.4111066 198.13406877 -20.26196289 198.10766602 C-10.53971731 198.08462832 -0.81757181 198.0511661 8.9045943 198.0054 C14.0481779 197.98154547 19.19166287 197.9627659 24.33530045 197.95648766 C29.18624453 197.9504015 34.03693647 197.93027537 38.88778687 197.89982605 C40.65892658 197.89110206 42.43009931 197.88731141 44.20125961 197.8890934 C58.70155228 197.89906748 74.1383083 197.71036645 85.48071289 187.44628906 C93.64197958 178.9597545 95.24788795 170.02369874 95.26196289 158.45410156 C94.60422673 149.96332566 91.53295327 143.88465244 85.69946289 137.76660156 C73.77724219 128.71794175 58.72841438 128.16657295 44.42139053 128.14914131 C41.96362246 128.14542286 39.50623868 128.1285503 37.04855347 128.10838318 C30.06881916 128.05348833 23.08903106 128.02237757 16.10913086 127.99780273 C11.81690498 127.98179224 7.52495657 127.95144176 3.23287582 127.91303825 C1.61365613 127.9015139 -0.00561341 127.89545902 -1.62487411 127.89535713 C-20.4221268 127.89374494 -36.42204935 124.50379467 -50.45288086 111.02050781 C-62.24723817 97.77453729 -65.44711792 82.94858595 -65.25952148 65.73120117 C-65.23802001 63.38973906 -65.2594704 61.05133247 -65.28491211 58.70996094 C-65.31842493 42.1964105 -60.93560767 29.72696221 -49.86694336 17.36425781 C-36.05810016 4.2681291 -18.53233885 -0.20921623 0 0 Z " fill="#FFFFFF" transform="translate(125.738037109375,106.5458984375)"/>
<path d="M0 0 C3.32823741 1.11897637 6.20274942 2.77925036 9.21875 4.5390625 C36.91258478 19.9125215 71.97869572 23.84104299 102.49267578 15.55126953 C103.22728027 15.34099121 103.96188477 15.13071289 104.71875 14.9140625 C105.81485596 14.60057861 105.81485596 14.60057861 106.93310547 14.28076172 C116.27446441 11.49774137 124.7639471 7.62202595 133.18823242 2.72192383 C138.22927661 -0.1439546 138.22927661 -0.1439546 140.7618866 0.15623474 C144.08991005 1.44506694 146.31740169 4.12933984 148.76953125 6.63671875 C149.63507881 7.50507607 149.63507881 7.50507607 150.51811218 8.39097595 C151.73947261 9.61905683 152.95723075 10.85072926 154.17163086 12.08569336 C156.0072526 13.95216184 157.8530337 15.80804213 159.70117188 17.66210938 C169.33471375 27.3605974 169.33471375 27.3605974 173.140625 31.859375 C176.46727109 35.76357464 180.09770253 39.33381511 183.74609375 42.93359375 C184.38428543 43.56393021 185.02247711 44.19426666 185.68000793 44.84370422 C188.35285964 47.47981484 191.02848842 50.11295815 193.71313477 52.73706055 C195.68912223 54.67093021 197.65571478 56.61395199 199.62109375 58.55859375 C200.53966408 59.44923271 200.53966408 59.44923271 201.47679138 60.35786438 C202.9486344 61.82059612 204.3417131 63.36174958 205.71875 64.9140625 C205.71875 67.9140625 205.71875 67.9140625 204.44384766 69.19750977 C203.84620605 69.62088623 203.24856445 70.0442627 202.6328125 70.48046875 C201.95879395 70.96088623 201.28477539 71.44130371 200.59033203 71.9362793 C199.84895996 72.44457275 199.10758789 72.95286621 198.34375 73.4765625 C197.57788574 74.00741455 196.81202148 74.5382666 196.02294922 75.08520508 C187.89856252 80.61974706 179.45028924 85.4122121 170.71875 89.9140625 C169.97431641 90.30190918 169.22988281 90.68975586 168.46289062 91.08935547 C148.00431058 101.63250875 126.36321412 108.06380355 103.71875 111.9140625 C102.96029785 112.04538574 102.2018457 112.17670898 101.42041016 112.31201172 C46.03226324 121.40939683 -13.5032372 105.48742528 -58.79711914 73.08789062 C-61.05800997 71.4386169 -63.24074127 69.83454131 -65.28125 67.9140625 C-65.28125 64.9140625 -65.28125 64.9140625 -63.92358398 63.23168945 C-63.29782471 62.62800537 -62.67206543 62.02432129 -62.02734375 61.40234375 C-61.33705078 60.72623047 -60.64675781 60.05011719 -59.93554688 59.35351562 C-59.20400391 58.65162109 -58.47246094 57.94972656 -57.71875 57.2265625 C-51.75592929 51.46821312 -51.75592929 51.46821312 -46.19140625 45.33203125 C-39.68571976 37.75862113 -32.33231816 30.91432968 -25.2421875 23.89550781 C-15.60660419 14.44813959 -15.60660419 14.44813959 -6.578125 4.4296875 C-2.70071848 -0.10173939 -2.70071848 -0.10173939 0 0 Z " fill="#F16A37" transform="translate(1473.28125,0.0859375)"/>
<path d="M0 0 C0.78330688 0.00215515 1.56661377 0.0043103 2.37365723 0.00653076 C36.84020601 0.15787634 70.96052124 7.75969782 101.43505859 24.23095703 C103.57921298 25.38904091 105.7367534 26.51986993 107.89453125 27.65234375 C118.07024755 33.07392047 127.33175178 39.24815846 136.4375 46.3125 C134.78378796 50.38771896 131.91466744 53.29282599 128.9375 56.4375 C128.350896 57.06277588 127.76429199 57.68805176 127.15991211 58.33227539 C119.48161116 66.43551505 111.52693229 74.27497392 103.58984375 82.12353516 C98.56991593 87.09796234 93.64084573 92.08566589 89.05395508 97.46899414 C86.03570118 100.91119852 82.75643705 104.09760729 79.5 107.3125 C78.81615234 107.99183594 78.13230469 108.67117188 77.42773438 109.37109375 C75.76662841 111.02058359 74.10321487 112.6676668 72.4375 114.3125 C68.42951471 113.10764553 64.83108531 111.55931186 61.13671875 109.59643555 C51.89962202 104.69674809 42.48950699 101.1532345 32.4375 98.3125 C31.24769531 97.97089844 30.05789063 97.62929688 28.83203125 97.27734375 C8.83044901 92.58776885 -14.90142754 93.60190584 -34.5625 99.3125 C-35.29033691 99.52148926 -36.01817383 99.73047852 -36.76806641 99.94580078 C-46.11352269 102.7287997 -54.60411546 106.60245324 -63.03198242 111.50463867 C-68.0072327 114.33311268 -68.0072327 114.33311268 -70.47631836 114.24145508 C-73.58547038 112.85698188 -75.22769732 110.66874333 -77.453125 108.109375 C-81.59994131 103.43186231 -85.85837641 98.91764708 -90.296875 94.515625 C-90.8703064 93.94557739 -91.44373779 93.37552979 -92.0345459 92.78820801 C-93.7917904 91.04419706 -95.55168352 89.30290404 -97.3125 87.5625 C-110.58106638 74.4459052 -110.58106638 74.4459052 -115.87646484 68.21679688 C-120.14703639 63.39338852 -124.89382802 58.9894992 -129.50585938 54.49609375 C-130.28638672 53.72652344 -131.06691406 52.95695312 -131.87109375 52.1640625 C-132.58064209 51.47135254 -133.29019043 50.77864258 -134.02124023 50.06494141 C-135.5625 48.3125 -135.5625 48.3125 -135.5625 46.3125 C-134.07226562 45.03491211 -134.07226562 45.03491211 -131.96875 43.58984375 C-131.19402344 43.05584961 -130.41929688 42.52185547 -129.62109375 41.97167969 C-128.35458984 41.11944824 -128.35458984 41.11944824 -127.0625 40.25 C-126.19753906 39.66508789 -125.33257813 39.08017578 -124.44140625 38.47753906 C-116.70442516 33.30535016 -108.82675717 28.58772412 -100.5625 24.3125 C-99.85222656 23.9417334 -99.14195313 23.5709668 -98.41015625 23.18896484 C-67.98031193 7.49941198 -34.16330552 -0.17062492 0 0 Z " fill="#F16A37" transform="translate(1542.5625,327.6875)"/>
<path d="M0 0 C6.95517248 -0.25468783 13.90913376 -0.42913012 20.86791992 -0.54931641 C23.23198371 -0.59944019 25.59574002 -0.66756169 27.95874023 -0.75439453 C47.56367926 -1.45648841 47.56367926 -1.45648841 53.36425781 2.01123047 C55.64378436 4.55117771 57.30101034 7.04873896 59 10 C60.14679928 11.3129222 61.33021301 12.59514117 62.5546875 13.8359375 C63.373927 14.71028442 63.373927 14.71028442 64.2097168 15.60229492 C64.75926025 16.1872876 65.30880371 16.77228027 65.875 17.375 C71.9619023 23.87618978 77.99332114 30.42464148 84 37 C85.81165744 38.97993912 87.62434846 40.95892908 89.4375 42.9375 C89.88963867 43.43088867 90.34177734 43.92427734 90.80761719 44.43261719 C95.68655019 49.75352005 100.58474275 55.05659879 105.48388672 60.35888672 C108.48958138 63.61239388 111.49339394 66.86763876 114.49755859 70.12255859 C117.00946922 72.84399973 119.52183529 75.56501749 122.03515625 78.28515625 C127.32112683 84.00708317 132.59710804 89.73783427 137.85791016 95.48291016 C142.71841122 100.78859486 147.60080912 106.07398724 152.48388672 111.35888672 C154.99014104 114.07177586 157.49500446 116.78594859 160 119.5 C160.99999324 120.58333957 161.99999324 121.66667291 163 122.75 C165 124.91666667 167 127.08333333 169 129.25 C169.49508057 129.78633057 169.99016113 130.32266113 170.50024414 130.87524414 C171.49945738 131.95773871 172.49864362 133.04025821 173.49780273 134.12280273 C176.00961835 136.84417508 178.52191333 139.56510195 181.03515625 142.28515625 C186.32112683 148.00708317 191.59710804 153.73783427 196.85791016 159.48291016 C201.71841122 164.78859486 206.60080912 170.07398724 211.48388672 175.35888672 C213.99014104 178.07177586 216.49500446 180.78594859 219 183.5 C219.99999324 184.58333957 220.99999324 185.66667291 222 186.75 C224 188.91666667 226 191.08333333 228 193.25 C228.4952417 193.7864917 228.9904834 194.3229834 229.50073242 194.87573242 C230.49837218 195.95654944 231.49593108 197.03744109 232.4934082 198.1184082 C235.02885428 200.8658661 237.56579382 203.61191901 240.10546875 206.35546875 C242.60459697 209.05577128 245.09871772 211.76061518 247.58935547 214.46875 C248.5241002 215.48341233 249.46060481 216.49645642 250.39892578 217.5078125 C251.6871889 218.89681548 252.9687825 220.29199549 254.25 221.6875 C254.97703125 222.47511719 255.7040625 223.26273438 256.453125 224.07421875 C258 226 258 226 258 228 C251.24257074 228.30663965 244.48695765 228.51535075 237.72412109 228.65917969 C235.42884307 228.71918274 233.13401711 228.80082093 230.84033203 228.90527344 C209.71486387 229.84254954 209.71486387 229.84254954 203.33911133 224.05883789 C200.98790038 221.50745786 199.00261606 218.83747974 197 216 C195.75107624 214.56343306 194.48769644 213.13915661 193.203125 211.734375 C192.40358398 210.79754883 192.40358398 210.79754883 191.58789062 209.84179688 C188.74754036 206.54727006 185.73780869 203.41031044 182.75 200.25 C177.34763096 194.51185663 171.98740086 188.74064591 166.671875 182.921875 C163.81122319 179.79355986 160.93886448 176.67635821 158.0625 173.5625 C157.56484131 173.02359131 157.06718262 172.48468262 156.55444336 171.92944336 C154.0125346 169.17731698 151.4694708 166.4262617 148.92578125 163.67578125 C142.58293253 156.81455092 136.27295961 149.92523639 130 143 C127.02363795 144.33579648 124.96048142 145.79234603 122.6875 148.125 C122.15511719 148.66382813 121.62273437 149.20265625 121.07421875 149.7578125 C119.2535191 151.7259511 117.48881495 153.72642012 115.73046875 155.75 C112.12624888 159.88699266 108.39536146 163.88971963 104.625 167.875 C99.80607718 172.99043571 95.04287635 178.14310466 90.36328125 183.38671875 C86.72288438 187.41221546 83.00590069 191.36547354 79.29711914 195.32788086 C74.74846046 200.19019789 70.23915688 205.08633809 65.74609375 210 C62.65205834 213.38314462 59.54594965 216.75510069 56.4375 220.125 C55.66768799 220.9605542 55.66768799 220.9605542 54.88232422 221.81298828 C49.192552 227.97834645 49.192552 227.97834645 46.86129761 228.24050903 C45.5355925 228.2338472 45.5355925 228.2338472 44.18310547 228.22705078 C43.18221893 228.22689972 42.1813324 228.22674866 41.15011597 228.22659302 C39.52506638 228.21110916 39.52506638 228.21110916 37.8671875 228.1953125 C36.76021515 228.1924826 35.6532428 228.18965271 34.51272583 228.18673706 C30.96670863 228.17551519 27.42094125 228.15040691 23.875 228.125 C21.47526406 228.1149728 19.07552417 228.1058465 16.67578125 228.09765625 C10.78376849 228.07556932 4.89190209 228.04207207 -1 228 C0.71025466 224.33565049 2.75997924 222.0654411 5.6875 219.25 C9.38359547 215.68611323 12.79349994 211.98339182 16.15014648 208.10595703 C19.23877361 204.58972401 22.46647881 201.2070761 25.6875 197.8125 C30.52742402 192.69148337 35.35475497 187.56103758 40.125 182.375 C44.41656218 177.70936907 48.73242418 173.06741336 53.0625 168.4375 C57.23125505 163.97882338 61.38169825 159.50533745 65.5 155 C69.61830421 150.49465986 73.76894029 146.02136202 77.9375 141.5625 C90.72099847 128.0069758 90.72099847 128.0069758 103 114 C98.89199491 109.14621486 94.67187792 104.440749 90.3125 99.8125 C89.07119156 98.48867778 87.83031094 97.16445429 86.58984375 95.83984375 C85.98124512 95.18999512 85.37264648 94.54014648 84.74560547 93.87060547 C81.37321491 90.25672345 78.04246883 86.6050135 74.70703125 82.95703125 C70.32512121 78.165567 65.91380545 73.40117589 61.50732422 68.63232422 C60.02589866 67.02804639 58.54591008 65.42245634 57.06640625 63.81640625 C51.71047999 58.00420142 46.33522536 52.21092348 40.9375 46.4375 C35.83014702 40.9738848 30.75731385 35.48087409 25.7109375 29.9609375 C23.32212302 27.34877149 20.92331701 24.74598573 18.52099609 22.14624023 C17.51541448 21.05785551 16.51051945 19.96883599 15.50634766 18.87915039 C12.947573 16.10288408 10.37991266 13.33575075 7.796875 10.58203125 C6.78123528 9.49220122 5.76560974 8.40235797 4.75 7.3125 C4.03263672 6.55453125 4.03263672 6.55453125 3.30078125 5.78125 C0 2.22580907 0 2.22580907 0 0 Z " fill="#FFFFFF" transform="translate(960,107)"/>
<path d="M0 0 C10.89 0 21.78 0 33 0 C33 15.18 33 30.36 33 46 C62.37 46 91.74 46 122 46 C122 55.9 122 65.8 122 76 C92.63 76 63.26 76 33 76 C33.06152859 100.23448457 33.06152859 100.23448457 33.16015625 124.46875 C33.20863292 134.35741949 33.25310139 144.24598716 33.27099609 154.13476562 C33.28405004 161.33808228 33.31110948 168.54119083 33.35461307 175.74439025 C33.3771443 179.5543886 33.39291574 183.36413109 33.39188385 187.17420197 C33.39113225 190.76947413 33.40928042 194.36418253 33.44116783 197.95930862 C33.45358393 199.88926533 33.44664191 201.81931715 33.43885803 203.7492981 C33.58988709 216.5331455 37.07656796 227.47972037 45.8125 236.96875 C52.91452779 243.72713128 61.86135275 247.05186817 71.59472656 247.20532227 C72.71558655 247.22526749 73.83644653 247.24521271 74.99127197 247.26576233 C76.19555847 247.28247482 77.39984497 247.29918732 78.640625 247.31640625 C80.49660309 247.3475779 80.49660309 247.3475779 82.39007568 247.37937927 C85.67138691 247.43365872 88.95272733 247.48391779 92.23413086 247.53222656 C95.58583104 247.58256092 98.9374372 247.6382636 102.2890625 247.69335938 C108.8593078 247.80123515 115.42960346 247.90038431 122 248 C122 258.23 122 268.46 122 279 C105.05179979 279.12032643 105.05179979 279.12032643 97.75195312 279.14648438 C92.79718219 279.1643241 87.84257968 279.18528334 82.88793945 279.22631836 C78.88732258 279.25923955 74.88688666 279.27692098 70.88614464 279.28463173 C69.37013595 279.29011713 67.85413563 279.30082616 66.33820534 279.31719017 C47.53633132 279.51182783 30.99349828 275.51255614 17.06420898 262.33227539 C4.31043961 249.55681225 -0.21090069 233.84309718 -0.24884033 216.23660278 C-0.24176534 214.85613916 -0.23449578 213.47567652 -0.22705078 212.09521484 C-0.22648558 210.61592619 -0.22680536 209.13663697 -0.22793579 207.65734863 C-0.22850604 203.67041458 -0.21680523 199.68360261 -0.20278788 195.69669676 C-0.19022549 191.51937204 -0.1891057 187.34204406 -0.18673706 183.16470337 C-0.1805384 175.26724891 -0.16414958 167.36985029 -0.14403808 159.47242033 C-0.12162865 150.47599504 -0.110673 141.47956697 -0.10064721 132.48312068 C-0.0797818 113.9887091 -0.04312589 95.49437399 0 77 C-12.21 77 -24.42 77 -37 77 C-37 67.1 -37 57.2 -37 47 C-24.79 47 -12.58 47 0 47 C0 31.49 0 15.98 0 0 Z " fill="#FFFFFF" transform="translate(579,56)"/>
<path d="M0 0 C10.56 0 21.12 0 32 0 C32 15.18 32 30.36 32 46 C38.41308594 45.98839844 44.82617188 45.97679687 51.43359375 45.96484375 C55.48502705 45.95973706 59.5364564 45.95492329 63.58789062 45.95117188 C70.02515482 45.94518317 76.46240485 45.93808214 82.8996582 45.92456055 C88.08674843 45.91373255 93.27382349 45.90772335 98.46092415 45.90512276 C100.4445628 45.90326835 102.42820058 45.89964744 104.41183281 45.89426994 C107.18009136 45.88706068 109.94828638 45.88600901 112.71655273 45.88647461 C113.54517319 45.88287933 114.37379364 45.87928406 115.2275238 45.87557983 C120.88594784 45.88594784 120.88594784 45.88594784 122 47 C122 56.57 122 66.14 122 76 C92.3 76 62.6 76 32 76 C32.09068958 99.70126006 32.09068958 99.70126006 32.20898438 123.40234375 C32.2633805 133.07371287 32.31479728 142.74502998 32.34643555 152.41650391 C32.36949612 159.46158127 32.40298318 166.50652105 32.44870156 173.55148911 C32.4725258 177.27760968 32.49132495 181.00359489 32.49761391 184.72978973 C32.50485144 188.90176084 32.53537927 193.07326433 32.56762695 197.24511719 C32.56619186 198.46432358 32.56475677 199.68352997 32.5632782 200.93968201 C32.68684956 212.29737863 34.61765476 222.46337431 41 232 C41.38414062 232.61488281 41.76828125 233.22976563 42.1640625 233.86328125 C47.35138921 241.0396136 57.43060409 245.62008535 66 247 C67.90078517 247.11027198 69.80450847 247.17524054 71.70825195 247.20532227 C72.82903641 247.22526749 73.94982086 247.24521271 75.10456848 247.26576233 C76.3036937 247.28247482 77.50281891 247.29918732 78.73828125 247.31640625 C79.97418503 247.33718735 81.21008881 247.35796844 82.48344421 247.37937927 C85.75652126 247.43359931 89.0296274 247.48387578 92.30279541 247.53222656 C95.6478826 247.5826157 98.99287724 247.63828816 102.33789062 247.69335938 C108.89186058 247.80113487 115.44588147 247.90034178 122 248 C122 258.23 122 268.46 122 279 C104.88245148 279.16043524 104.88245148 279.16043524 97.49414062 279.1953125 C92.48460598 279.219074 87.47536822 279.24694926 82.46606445 279.30175781 C78.4200373 279.34574153 74.37432921 279.36924569 70.32808113 279.37950897 C68.79695689 279.38680748 67.26584687 279.40105448 65.73486137 279.42292023 C47.1481186 279.67742526 31.13997268 275.48180058 17.28515625 262.3515625 C3.81715004 248.49217833 -0.49182758 233.73673559 -0.34057617 214.70629883 C-0.33972817 213.19730649 -0.34020841 211.68831291 -0.34190369 210.17932129 C-0.34275832 206.11594192 -0.32521964 202.0528326 -0.30418181 197.98951554 C-0.28532549 193.73079213 -0.28365756 189.47206134 -0.28010559 185.21330261 C-0.27081128 177.1635604 -0.24623319 169.11394158 -0.21605712 161.06425351 C-0.18243136 151.89369458 -0.16600662 142.72312952 -0.15097082 133.55252421 C-0.11968105 114.7015988 -0.06470199 95.85084238 0 77 C-12.21 77 -24.42 77 -37 77 C-37 67.1 -37 57.2 -37 47 C-24.79 47 -12.58 47 0 47 C0 31.49 0 15.98 0 0 Z " fill="#FFFFFF" transform="translate(390,56)"/>
<path d="M0 0 C10.56 0 21.12 0 32 0 C32 75.24 32 150.48 32 228 C21.44 228 10.88 228 0 228 C0 152.76 0 77.52 0 0 Z " fill="#FFFFFF" transform="translate(290,107)"/>
<path d="M0 0 C1.10414246 0.00707474 2.20828491 0.01414948 3.34588623 0.0214386 C6.87190545 0.04942362 10.39633587 0.11217369 13.921875 0.17578125 C16.31247707 0.20085863 18.70310402 0.22367277 21.09375 0.24414062 C26.95366694 0.29926379 32.81265747 0.38293229 38.671875 0.48828125 C37.20968207 3.53569793 35.70987063 5.72950749 33.36328125 8.17578125 C32.70424805 8.86833008 32.04521484 9.56087891 31.36621094 10.27441406 C30.66270508 11.00499023 29.95919922 11.73556641 29.234375 12.48828125 C27.77153374 14.02416675 26.30929603 15.56062731 24.84765625 17.09765625 C24.13174316 17.84853516 23.41583008 18.59941406 22.67822266 19.37304688 C19.17135702 23.07023401 15.7437665 26.83776336 12.30859375 30.6015625 C7.95193752 35.37129428 3.5632308 40.11140117 -0.82080078 44.85595703 C-2.30222634 46.46023486 -3.78221492 48.06582491 -5.26171875 49.671875 C-11.2033782 56.11971242 -17.17017763 62.54311787 -23.1628418 68.94360352 C-25.98008975 71.9564446 -28.78400603 74.97938309 -31.5546875 78.03515625 C-32.05605225 78.58743896 -32.55741699 79.13972168 -33.07397461 79.70874023 C-34.42588007 81.20167428 -35.77363661 82.69836237 -37.12109375 84.1953125 C-39.328125 86.48828125 -39.328125 86.48828125 -42.328125 88.48828125 C-47.29914957 83.61870616 -52.10962555 78.69841378 -56.625 73.40234375 C-58.92069315 70.82232163 -61.40965254 68.47126477 -63.9453125 66.12890625 C-65.5932152 64.17376746 -66.21953249 63.05501323 -66.328125 60.48828125 C-64.921875 58.62890625 -64.921875 58.62890625 -62.828125 56.73828125 C-59.3487161 53.55328387 -56.26944227 50.17353969 -53.18847656 46.61132812 C-50.19667654 43.19706395 -47.07255777 39.91057464 -43.953125 36.61328125 C-39.10077313 31.461702 -34.2957117 26.27892033 -29.5859375 20.99609375 C-26.26255411 17.30472327 -22.87850076 13.66961489 -19.48754883 10.0402832 C-19.00568115 9.52167725 -18.52381348 9.00307129 -18.02734375 8.46875 C-17.60283936 8.01395264 -17.17833496 7.55915527 -16.7409668 7.09057617 C-15.16561028 5.42134744 -15.16561028 5.42134744 -13.86743164 2.83251953 C-9.7728652 -0.94750422 -5.36651318 -0.12906326 0 0 Z " fill="#FFFFFF" transform="translate(1179.328125,106.51171875)"/>
</svg>
